HIERARCHY
ROOT Hips
{
	OFFSET 0.000000 0.000000 0.000000
	CHANNELS 6 Xposition Yposition Zposition Xrotation Yrotation Zrotation
	JOINT LeftUpLeg_virtual
	{
		OFFSET 0.000000 0.000000 0.000000
		CHANNELS 3 Xrotation Yrotation Zrotation
		JOINT LeftUpLeg
		{
			OFFSET 13.026900 -6.336304 -1.092800
			CHANNELS 3 Xrotation Yrotation Zrotation
			JOINT LeftLeg
			{
				OFFSET 0.524474 -46.096886 9.782700
				CHANNELS 3 Xrotation Yrotation Zrotation
				JOINT LeftFoot
				{
					OFFSET -0.524474 -53.427422 -12.948200
					CHANNELS 3 Xrotation Yrotation Zrotation
					JOINT LeftToeBase
					{
						OFFSET 0.192200 -14.009700 16.364100
						CHANNELS 3 Xrotation Yrotation Zrotation
						JOINT LeftToe_End
						{
							OFFSET -1.784700 -0.561700 9.474800
							CHANNELS 3 Xrotation Yrotation Zrotation
							End Site
							{
								OFFSET 0 0 0
							}
						}
					}
				}
			}
		}
	}
	JOINT RightUpLeg_virtual
	{
		OFFSET 0.000000 0.000000 0.000000
		CHANNELS 3 Xrotation Yrotation Zrotation
		JOINT RightUpLeg
		{
			OFFSET -12.883000 -6.336304 -1.092800
			CHANNELS 3 Xrotation Yrotation Zrotation
			JOINT RightLeg
			{
				OFFSET -0.524587 -46.096825 9.782800
				CHANNELS 3 Xrotation Yrotation Zrotation
				JOINT RightFoot
				{
					OFFSET 0.524587 -53.427383 -12.948300
					CHANNELS 3 Xrotation Yrotation Zrotation
					JOINT RightToeBase
					{
						OFFSET -0.192200 -14.009700 16.364100
						CHANNELS 3 Xrotation Yrotation Zrotation
						JOINT RightToe_End
						{
							OFFSET 1.784700 -0.561700 9.474800
							CHANNELS 3 Xrotation Yrotation Zrotation
							End Site
							{
								OFFSET 0 0 0
							}
						}
					}
				}
			}
		}
	}
	JOINT Spine_virtual
	{
		OFFSET 0.000000 0.000000 0.000000
		CHANNELS 3 Xrotation Yrotation Zrotation
		JOINT Spine
		{
			OFFSET 0.072000 7.257294 -0.789700
			CHANNELS 3 Xrotation Yrotation Zrotation
			JOINT Spine1
			{
				OFFSET 0.000000 12.508769 -0.658067
				CHANNELS 3 Xrotation Yrotation Zrotation
				JOINT Spine1_split
				{
					OFFSET 0.000000 12.508769 -0.658067
					CHANNELS 3 Xrotation Yrotation Zrotation
					JOINT Spine2
					{
						OFFSET 0.000000 12.508769 -0.658067
						CHANNELS 3 Xrotation Yrotation Zrotation
						JOINT Neck_virtual
						{
							OFFSET 0.000000 0.000000 0.000000
							CHANNELS 3 Xrotation Yrotation Zrotation
							JOINT Neck
							{
								OFFSET 0.000000 14.033295 7.520400
								CHANNELS 3 Xrotation Yrotation Zrotation
								JOINT Head
								{
									OFFSET 0.000000 8.198502 5.703100
									CHANNELS 3 Xrotation Yrotation Zrotation
									JOINT HeadTop_End
									{
										OFFSET 0.000000 17.760803 13.332701
										CHANNELS 3 Xrotation Yrotation Zrotation
										End Site
										{
											OFFSET 0 0 0
										}
									}
								}
							}
						}
						JOINT LeftShoulder_virtual
						{
							OFFSET 0.000000 0.000000 0.000000
							CHANNELS 3 Xrotation Yrotation Zrotation
							JOINT LeftShoulder
							{
								OFFSET 6.292450 5.785301 -0.669000
								CHANNELS 3 Xrotation Yrotation Zrotation
								JOINT LeftShoulder_split
								{
									OFFSET 6.292450 5.785301 -0.669000
									CHANNELS 3 Xrotation Yrotation Zrotation
									JOINT LeftArm
									{
										OFFSET 13.907140 -6.093903 1.965100
										CHANNELS 3 Xrotation Yrotation Zrotation
										JOINT LeftForeArm
										{
											OFFSET 34.140198 0.000000 0.000000
											CHANNELS 3 Xrotation Yrotation Zrotation
											JOINT LeftHand
											{
												OFFSET 40.960209 0.000000 0.000000
												CHANNELS 3 Xrotation Yrotation Zrotation
												End Site
												{
													OFFSET 0 0 0
												}
											}
										}
									}
								}
							}
						}
						JOINT RightShoulder_virtual
						{
							OFFSET 0.000000 0.000000 0.000000
							CHANNELS 3 Xrotation Yrotation Zrotation
							JOINT RightShoulder
							{
								OFFSET -6.292450 5.785301 -0.669000
								CHANNELS 3 Xrotation Yrotation Zrotation
								JOINT RightShoulder_split
								{
									OFFSET -6.292450 5.785301 -0.669000
									CHANNELS 3 Xrotation Yrotation Zrotation
									JOINT RightArm
									{
										OFFSET -13.907140 -6.093903 1.965100
										CHANNELS 3 Xrotation Yrotation Zrotation
										JOINT RightForeArm
										{
											OFFSET -34.140198 0.000000 0.000000
											CHANNELS 3 Xrotation Yrotation Zrotation
											JOINT RightHand
											{
												OFFSET -40.960209 0.000000 0.000000
												CHANNELS 3 Xrotation Yrotation Zrotation
												End Site
												{
													OFFSET 0 0 0
												}
											}
										}
									}
								}
							}
						}
					}
				}
			}
		}
	}
}
MOTION
Frames: 6
Frame Time: 0.03333333
12.706352 86.684250 67.281494 0.000000 0.000000 0.000000 -18.836178 -49.590196 -11.102396 -43.460941 -5.342810 27.819164 58.570914 -4.287124 4.937807 -8.136591 -11.463496 -25.377798 -3.579669 0.007413 1.118529 0.000000 0.000000 0.000000 -19.575747 -42.973156 -9.443257 -33.600675 6.452698 -37.287191 80.666078 5.019121 -11.188969 -0.484737 -4.331017 20.191735 -15.428009 0.041214 5.067926 0.000000 0.000000 0.000000 -17.433033 -41.662194 -10.761631 25.945143 3.263549 -10.448118 -0.566740 1.240745 0.214568 1.275325 -1.177313 1.347010 0.000000 0.000000 0.000000 0.346160 0.924586 0.716923 0.705231 14.917307 0.761747 1.175842 23.095077 -5.648558 0.000000 0.000000 0.000000 0.236858 1.149170 0.814735 0.850160 1.786651 -8.058152 -0.028555 -3.694266 1.960853 -59.389478 4.480772 -44.305238 -175.780396 -66.431328 -173.844024 0.000000 0.000000 0.000000 0.258631 0.545346 0.334547 2.531967 11.142147 -4.653258 -6.329589 -1.264005 3.597401 -46.155410 21.653834 87.529072 -175.386117 64.035264 173.232804 0.000000 0.000000 0.000000 
11.102805 87.705299 63.058922 0.000000 0.000000 0.000000 -17.437529 -49.971078 -8.519212 -40.095970 -4.371082 27.770888 51.227942 -5.175980 4.835873 -5.176353 -11.425871 -27.361331 -3.553688 0.065347 0.762705 0.000000 0.000000 0.000000 -19.596144 -42.961770 -7.486552 -31.766581 4.789443 -37.947653 79.193031 6.068590 -10.645294 -6.586313 -6.650804 23.770008 -12.986779 0.408297 3.316061 0.000000 0.000000 0.000000 -18.607279 -42.795520 -9.797948 24.616372 4.490845 -9.614395 0.052252 1.355823 -0.469898 0.581958 -0.446740 1.506880 0.000000 0.000000 0.000000 0.693691 1.031097 0.017073 1.260534 14.601529 0.634782 3.271777 22.755115 -6.116820 0.000000 0.000000 0.000000 0.833841 1.275807 0.132026 0.759714 2.697324 -7.751393 -0.120962 -5.194530 2.147794 -58.051055 4.688342 -45.424323 -176.733727 -64.597655 -174.510336 0.000000 0.000000 0.000000 0.799665 0.640223 -0.361093 2.335839 11.853177 -4.582233 -5.973284 -0.357590 2.765079 -47.376907 19.574026 87.944471 -174.224629 66.581381 172.363348 0.000000 0.000000 0.000000 
9.510259 89.157677 58.549355 0.000000 0.000000 0.000000 -14.726209 -49.199458 -5.269351 -37.860596 -3.290134 27.446278 43.805241 -5.548870 4.421198 -2.661521 -11.556117 -28.078976 -3.700340 0.076449 0.443421 0.000000 0.000000 0.000000 -18.137154 -42.269281 -4.914165 -28.830594 2.252507 -37.781140 76.528288 5.983460 -9.206073 -14.035562 -9.988376 23.501013 -8.279554 0.679844 2.242539 0.000000 0.000000 0.000000 -18.308428 -43.339685 -7.940160 23.275540 5.571802 -8.884860 0.633649 1.387484 -1.156495 -0.137432 0.479128 1.638368 0.000000 0.000000 0.000000 0.961153 1.093750 -0.708882 1.760470 14.046359 0.596513 4.579787 21.758213 -6.039902 0.000000 0.000000 0.000000 1.358012 1.333488 -0.543936 0.718500 3.220185 -7.329556 -0.450389 -5.900790 1.761420 -57.427035 3.916302 -46.199970 -178.089314 -63.043029 -175.690005 0.000000 0.000000 0.000000 1.296948 0.704814 -1.057105 2.239906 12.767229 -5.034670 -4.887016 1.119647 2.057369 -48.497068 17.739482 87.735180 -173.482461 67.491654 171.759068 0.000000 0.000000 0.000000 
8.120729 90.734207 53.922409 0.000000 0.000000 0.000000 -11.917580 -48.064010 -2.554857 -37.067402 -2.185307 26.929783 38.752516 -5.543458 4.006122 -1.294665 -11.760820 -27.611542 -4.173477 0.025832 0.245904 0.000000 0.000000 0.000000 -16.020410 -41.501903 -2.663228 -26.047705 -0.805186 -36.619639 73.046626 4.900525 -7.014024 -20.429323 -13.019573 20.291466 -3.556141 0.844146 1.700406 0.000000 0.000000 0.000000 -16.945387 -43.745367 -5.841651 21.976824 6.398314 -8.232760 1.141284 1.322868 -1.638237 -0.226627 1.544421 1.558769 0.000000 0.000000 0.000000 1.117008 1.089364 -1.228919 2.147356 13.412514 0.392129 4.942993 20.456318 -5.670448 0.000000 0.000000 0.000000 1.737939 1.291488 -1.026784 0.725435 3.322983 -6.963762 -1.010219 -5.485831 0.969850 -57.521224 2.961555 -46.431312 -179.649903 -62.377044 -177.223861 0.000000 0.000000 0.000000 1.702659 0.740345 -1.521732 2.255168 13.618604 -6.068029 -3.515889 2.229736 1.809760 -49.899077 16.373809 86.700932 -173.683774 66.302586 171.989532 0.000000 0.000000 0.000000 
7.134149 92.328125 49.355347 0.000000 0.000000 0.000000 -9.531726 -47.337511 -0.844736 -37.786768 -1.130411 26.271307 38.065519 -5.706445 3.764811 -1.192279 -12.118375 -26.630737 -4.801368 -0.059152 0.366904 0.000000 0.000000 0.000000 -13.730729 -41.203389 -1.205145 -24.695469 -3.662089 -34.687918 68.739085 3.751338 -4.689995 -23.354611 -14.564801 17.554252 -1.634678 0.920603 1.370597 0.000000 0.000000 0.000000 -14.642083 -44.199537 -3.870247 20.751168 6.947879 -7.622524 1.535750 1.179958 -1.777364 -0.000797 2.095049 1.397781 0.000000 0.000000 0.000000 1.169218 1.028091 -1.383708 2.356551 13.000761 -0.123242 4.422745 19.255012 -5.335582 0.000000 0.000000 0.000000 1.971010 1.147677 -1.184981 0.749469 3.064205 -6.794528 -1.803819 -4.277037 -0.217946 -58.369547 2.393822 -46.103886 178.789709 -62.928268 -178.924373 0.000000 0.000000 0.000000 1.958784 0.717053 -1.600800 2.332721 14.250270 -7.233403 -2.551070 2.481809 2.052148 -51.536561 15.472597 85.109430 -174.725528 63.781748 173.023377 0.000000 0.000000 0.000000 
6.539472 94.005058 44.994629 0.000000 0.000000 0.000000 -7.934813 -47.217190 -0.297242 -39.495876 0.251786 25.288932 41.726633 -5.788155 3.661086 -2.480046 -12.427015 -25.049201 -5.292312 -0.145301 0.741264 0.000000 0.000000 0.000000 -11.416214 -41.960611 -0.666893 -25.269151 -6.178877 -32.148976 63.712278 2.989319 -2.598743 -22.320344 -14.494862 16.968849 -2.962614 0.916091 1.053538 0.000000 0.000000 0.000000 -11.842870 -44.958962 -2.478024 19.608210 7.230802 -7.075667 1.781881 1.017941 -1.573999 0.452420 2.076496 1.001637 0.000000 0.000000 0.000000 1.158346 0.943258 -1.156700 2.439933 12.868295 -0.965709 3.239589 18.397929 -5.240990 0.000000 0.000000 0.000000 2.061823 0.959956 -1.018930 0.773599 2.523635 -6.840177 -2.584003 -2.759212 -1.283667 -59.857394 2.351630 -45.450305 177.370013 -64.357218 179.360631 0.000000 0.000000 0.000000 2.071126 0.663347 -1.289934 2.442612 14.576588 -8.208929 -1.983052 1.711756 2.509914 -53.021396 15.220032 83.480669 -175.900976 61.378955 174.210627 0.000000 0.000000 0.000000 
